<?xml version="1.0"?>
<svg width="97.903" height="158.767" xmlns="http://www.w3.org/2000/svg" xmlns:svg="http://www.w3.org/2000/svg" version="1.1">
 <metadata id="metadata364">image/svg+xml</metadata>
 <style id="style2">
  <![CDATA[.B{stroke-width:.265}.C{fill:#ffeba3}.D{fill:#f5c742}.E{stroke:#a07843}.F{opacity:.998}.G{fill:#fff}.H{fill:#cecece}.I{stroke:#b9b9b9}.J{fill:#008e2b}.K{stroke:#00541a}.L{fill:#00b537}.M{stroke:#8b0000}.N{fill-rule:evenodd}.O{stroke:#a9a9a9}.P{stroke-width:.318}.Q{stroke-linecap:round}]]>
 </style>
 <defs id="defs42">
  <linearGradient gradientUnits="userSpaceOnUse" id="A">
   <stop id="stop4" offset="0" stop-color="#dbdbdb"/>
   <stop id="stop6" offset="1" stop-color="#fff"/>
  </linearGradient>
  <linearGradient gradientUnits="userSpaceOnUse" id="B">
   <stop id="stop9" offset="0" stop-color="#fff"/>
   <stop id="stop11" offset="1" stop-color="#c4c4c4"/>
  </linearGradient>
  <linearGradient gradientUnits="userSpaceOnUse" id="C">
   <stop id="stop14" offset="0" stop-color="#ca0000"/>
   <stop id="stop16" offset="1" stop-color="red"/>
  </linearGradient>
  <linearGradient href="#C" id="D" x1="853.45" x2="838.04" y1="470.73" y2="482.98"/>
  <linearGradient href="#B" id="E" x1="222.34" x2="225.81" y1="129.8" y2="126.69"/>
  <linearGradient href="#B" id="F" x1="222.34" x2="225.81" y1="129.8" y2="126.69"/>
  <linearGradient href="#C" id="G" x1="853.45" x2="838.04" y1="470.73" y2="482.98"/>
  <radialGradient cx="0.5" cy="0.5" fx="0.5" fy="0.5" id="H" r="0.5">
   <stop id="stop23" offset="0" stop-color="#57b500"/>
   <stop id="stop25" offset="1" stop-color="#008e2b"/>
  </radialGradient>
  <linearGradient href="#A" id="I" x1="188.89" x2="184.11" y1="183.11" y2="185.47"/>
  <linearGradient href="#A" id="J" x1="241.28" x2="246.05" y1="183.11" y2="185.47"/>
  <path d="m226.76,124.87c-2.47,1.48 -4.75,3.25 -6.77,5.29l-1.44,1.55l1.02,2.33l0,0a31.45,31.45 0 0 1 2.15,-2.39c1.86,-1.86 3.96,-3.48 6.21,-4.83l-1.17,-1.95z" id="K"/>
  <path d="m852.59,464.58c-9.92,5.94 -19.12,13.09 -27.27,21.31c-3.66,3.7 -7.1,7.6 -10.3,11.69l11.01,0.22c1.72,-1.97 3.58,-3.99 5.42,-5.85c7.64,-7.72 16.27,-14.42 25.59,-19.99l-4.45,-7.38z" id="L"/>
  <path d="m85.9,122.92l-2.2,4.25l2.79,3.59l1.76,-3.94l-2.35,-3.9z" id="M"/>
  <path d="m207.33,174.13l0.72,1.14c0.06,0.72 0.36,1.36 0.73,2.12c1.01,2.07 2.93,2.98 5.61,3.4c-1.59,-2.08 -0.29,-3.63 -5.86,-5.65c-0.41,-0.15 -0.71,-0.87 -1.2,-1.01z" id="N"/>
  <path d="m208.9,175.95c1.51,0.61 3.15,1.06 3.5,3.07c-1.17,-1.3 -2.33,-2.12 -3.5,-3.07z" id="O"/>
  <path d="m273.09,177.53c-0.58,-1.62 0.18,-3.28 2.79,-2.95c2.28,-1.62 3.63,0.32 3.92,0.94c4.12,1.12 1.88,4.57 0.9,4.37l-3.97,0.03l-3.64,-2.39z" id="P"/>
  <path d="m274.1,176.18c0.84,0.41 1.34,0.7 1.59,0.55c0.4,-0.24 0.35,-1.22 2.02,-1.44c0.5,0.64 1.02,1.28 0.98,2.17c1,-0.35 1.82,0.15 2.64,0.66c1.2,-0.07 -0.71,-2.41 -1.65,-2.12c-0.68,-0.55 -1.34,-2.31 -3.64,-0.9c-1.58,-0.22 -3.28,0.43 -1.94,1.08z" id="Q"/>
  <path d="m272.66,176c1.19,0.27 2.1,0.94 2.98,1.65c0.75,-0.62 1.3,-1.23 1.8,-1.84c0.49,0.85 0.74,1.58 0.99,2.31c1.72,-0.66 2.87,0.23 4.11,0.9c-2.08,3.94 -6.31,1.94 -7.33,3.4c-1.45,-1.75 -3.23,-3.45 -2.55,-6.42z" id="R"/>
  <path d="m273.27,177.18c1.16,0.29 1.75,0.81 2.4,1.31c0.55,-0.49 1.28,-0.83 1.5,-1.61a4.61,4.61 0 0 1 0.77,1.99c1.66,-0.67 2.37,0.19 3.51,0.35c-1.59,0.42 -3.11,1.06 -5,0.64c-2.23,-0.9 -2.12,-1.79 -3.19,-2.68l0.01,0z" id="S"/>
  <path d="m272.66,176c1.19,0.27 2.1,0.94 2.98,1.65c0.75,-0.62 1.3,-1.23 1.8,-1.84c0.49,0.85 0.74,1.58 0.99,2.31c1.72,-0.66 2.87,0.23 4.11,0.9c-2.08,3.94 -6.31,1.94 -7.33,3.4c-1.01,-1.87 -2.45,-3.67 -2.55,-6.42z" id="T"/>
  <path d="m80.43,151.54c-4.91,13.81 -0.36,26.6 3.28,31.45l1.3,-0.55c-4.99,-9.07 -5.72,-18.52 -4.03,-28.06l-0.55,-2.84z" id="U"/>
  <path d="m121.56,185.88l-0.06,-0.03c-1.5,-0.4 -3.19,-1.19 -4.87,-1.34c-1.99,-0.17 -4.02,1.31 -6.23,0.92c-1.44,-0.25 -3.2,-1.12 -5.4,-1.05c-2.2,-0.07 -3.96,0.8 -5.4,1.05c-2.21,0.39 -4.24,-1.09 -6.23,-0.92c-1.68,0.15 -3.37,0.94 -4.87,1.34l-0.06,0.03" id="V"/>
  <filter color-interpolation-filters="sRGB" height="1" id="filter1503" width="1" x="0" y="0">
   <feGaussianBlur id="feGaussianBlur1505" stdDeviation="0"/>
  </filter>
 </defs>
 <g class="layer">
  <title>Layer 1</title>
  <path d="m1.05,1.05l0,59.02c0,36.12 22.86,58.3 47.9,67.58c25.05,-9.28 47.9,-31.46 47.9,-67.58l0,-59.02l-47.9,0l-47.9,0z" fill="#ffea00" id="path44" stroke="#e62129" stroke-width="2.1"/>
  <path class="G" d="m48.94,27.98c-1.85,0.16 -3.73,0.27 -5.48,0.78c-1.72,0.5 -3.31,1.41 -4.57,3.11c-3.12,0.64 -5.37,1.74 -6.93,3.2c-1.56,1.45 -2.42,3.27 -2.8,5.32c-2.14,0.86 -3.49,2.37 -4.26,4.22c-0.78,1.86 -0.98,4.05 -0.85,6.23l0.2,1.91c-2.46,6.92 -2.55,13.58 -1.57,19.12c0.97,5.45 2.96,9.8 4.77,12.27c-0.28,0.66 -0.2,1.45 0.29,2.03l2.8,3.32c0.59,0.7 1.59,0.88 2.37,0.47l1.99,2.01c-0.25,0.83 0.07,1.76 0.84,2.23l3.72,2.25c0.91,0.55 2.11,0.26 2.66,-0.65a1.93,1.93 0 0 0 0.09,-0.18l2.64,0.62c0.09,0.99 0.92,1.77 1.93,1.77l4.34,0c1.01,0 1.85,-0.78 1.93,-1.77l2.64,-0.61c0.03,0.05 0.06,0.11 0.1,0.17c0.55,0.91 1.75,1.2 2.66,0.65l3.71,-2.25c0.77,-0.47 1.1,-1.4 0.84,-2.23l2,-2.01c0.78,0.41 1.78,0.23 2.37,-0.47l2.8,-3.32a1.94,1.94 0 0 0 0.29,-2.02c1.8,-2.48 3.8,-6.83 4.76,-12.27c0.98,-5.55 0.89,-12.21 -1.56,-19.13c0.09,-0.63 0.16,-1.27 0.19,-1.91c0.13,-2.17 -0.06,-4.36 -0.84,-6.23c-0.77,-1.84 -2.13,-3.36 -4.26,-4.21c-0.39,-2.06 -1.25,-3.87 -2.8,-5.33c-1.56,-1.46 -3.82,-2.56 -6.94,-3.19c-1.26,-1.71 -2.84,-2.62 -4.57,-3.12c-1.74,-0.51 -3.62,-0.62 -5.48,-0.78l-0.01,0l-0.01,0z" id="path46"/>
  <g id="g1510">
   <path class="B" d="m48.95,28.11c-3.71,0.32 -7.49,0.45 -9.99,3.88c-6.26,1.27 -8.94,4.37 -9.69,8.49c-8.59,3.34 -4.19,17.41 -2.34,20.57l2.07,-10.49l2.61,4.41l0.94,-6.08l2.17,4.21l2.87,-7.38l2.87,5.45l2.57,-5.28c1.45,2.93 3.16,4.12 3.41,14.97l2.51,0l2.51,0c0.25,-10.85 1.96,-12.04 3.41,-14.97l2.57,5.28l2.87,-5.45l2.88,7.38l2.17,-4.21l0.93,6.08l2.61,-4.41l2.07,10.49c1.86,-3.16 6.25,-17.23 -2.34,-20.58c-0.74,-4.11 -3.43,-7.22 -9.69,-8.48c-2.5,-3.43 -6.28,-3.56 -9.99,-3.88z" fill="url(#H)" id="path50" stroke="#0b7033"/>
   <path d="m48.95,31.02c-1.18,0.06 -2.07,0.97 -2.98,1.84c0.9,-0.38 1.44,-0.9 2.98,-0.98c1.54,0.08 2.09,0.6 2.98,0.98c-0.9,-0.87 -1.8,-1.78 -2.98,-1.84zm13.72,7.99c-1.18,-1.73 -2.93,-2.63 -4.7,-3.48c1.92,0.24 4.03,-0.03 4.7,3.48zm-4.61,2.01c-1.74,-1.17 -3.69,-1.35 -5.66,-1.47c1.87,-0.5 3.74,-1.53 5.66,1.47zm12.34,4.28c-1.33,-1.62 -3.14,-2.37 -4.98,-3.06c1.93,0.07 4.01,-0.37 4.98,3.06zm-35.17,-6.29c1.19,-1.73 2.93,-2.63 4.71,-3.48c-1.93,0.24 -4.04,-0.03 -4.71,3.48zm4.61,2.01c1.74,-1.17 3.69,-1.35 5.66,-1.47c-1.87,-0.5 -3.73,-1.53 -5.66,1.47zm-12.34,4.28c1.33,-1.62 3.14,-2.37 4.99,-3.06c-1.94,0.07 -4.02,-0.37 -4.99,3.06z" fill="#ffea00" filter="url(#filter1503)" id="path1487" stroke-width="0.26px"/>
  </g>
  <path d="m36.03,52.89l0.17,0.31l1.67,2.49a19.9,19.9 0 0 0 -5.44,5.44l-2.49,-1.67l-0.32,-0.16l-3.47,8.38l0.34,0.11l2.94,0.58a19.9,19.9 0 0 0 0,7.7l39.04,0a19.9,19.9 0 0 0 0,-7.7l2.95,-0.58l0.33,-0.11l-3.47,-8.38l-0.31,0.16l-2.49,1.67a19.9,19.9 0 0 0 -5.44,-5.44l1.67,-2.49l0.16,-0.31l-8.38,-3.48l-0.11,0.34l-0.58,2.94a19.9,19.9 0 0 0 -7.7,0l-0.58,-2.94l-0.1,-0.34l-8.39,3.48z" fill="#ffeb00" id="path52" stroke="#c0b100" stroke-width="0.34"/>
  <path d="m51.05,63.45c-1.1,-0.01 -2.19,0.78 -3.43,0.15c-9.19,6.17 -12.49,10.4 -22.83,12.45l2.87,7.19l21.29,0l21.29,0l2.87,-7.19c-10.28,-0.83 -14.11,-6.54 -20.54,-11.86c-0.52,-0.55 -1.02,-0.73 -1.52,-0.74z" fill="#0f9f48" id="path54" stroke="#0b7033" stroke-width="0.23"/>
  <use class="F O P" fill="url(#F)" fill-rule="evenodd" height="100%" href="#K" id="use64" transform="matrix(-1,0,0,1,293.638,-98.771996)" width="100%" x="0" y="0"/>
  <g id="g1377">
   <g class="N" id="g60" transform="translate(-195.734,-98.772)">
    <use class="F O P" fill="url(#E)" height="100%" href="#K" id="use56" width="100%" x="0" y="0"/>
    <use class="F M" fill="url(#D)" height="100%" href="#L" id="use58" stroke-width="1.2" transform="scale(0.26458333)" width="100%" x="0" y="0"/>
   </g>
   <use class="B M" fill="#c50000" height="100%" href="#M" id="use62" transform="translate(-56.048,-98.772)" width="100%" x="0" y="0"/>
   <use class="F M" fill="url(#G)" fill-rule="evenodd" height="100%" href="#L" id="use66" stroke-width="1.2" transform="matrix(-0.26458333,0,0,0.26458333,293.638,-98.771996)" width="100%" x="0" y="0"/>
   <use class="B M" fill="#c50000" height="100%" href="#M" id="use70" transform="matrix(-1,0,0,1,153.952,-98.771996)" width="100%" x="0" y="0"/>
   <g id="g78" stroke-width="0.32" transform="translate(-56.048,-98.772)">
    <path class="F G N O" d="m105,122.14c-7.15,0 -14.25,2.47 -19.91,6.83l1.39,1.79c5.3,-4.11 11.82,-6.34 18.52,-6.34c6.7,0 13.22,2.23 18.52,6.34l1.39,-1.79c-5.66,-4.36 -12.77,-6.83 -19.91,-6.83z" id="path74"/>
    <path class="M" d="m104.65,119.86c-7.53,0.08 -14.99,2.72 -20.95,7.31l1.39,1.8c5.66,-4.36 12.77,-6.83 19.91,-6.83c7.14,0 14.25,2.47 19.91,6.83l1.39,-1.8c-6.05,-4.66 -13.65,-7.31 -21.3,-7.31c-0.11,0 -0.22,0 -0.32,0a4.56,4.56 0 0 0 -0.03,0z" fill="#ff0000" id="path76"/>
   </g>
  </g>
  <g id="g1360">
   <path d="m41.42,5.75l0,10.25c0,6.27 3.6,10.12 7.53,11.73c3.94,-1.61 7.53,-5.46 7.53,-11.73l0,-10.25l-7.53,0l-7.53,0z" id="path80" opacity="0.99"/>
   <path class="C" d="m43.97,13.42l2.98,2.2l0,0" id="path82"/>
   <path class="G" d="m48.95,9.77l-0.01,0.02l-1.26,3.62l0,0l-3.73,-0.01l0.02,0.02l2.98,2.2l-1.09,3.66l0.02,-0.01l3.07,-2.21l0,0l3.1,2.09l-0.01,-0.01l-1.13,-3.56l0,0l3.04,-2.17l0.01,-0.01l-3.72,0.01l-0.01,0l-1.28,-3.64z" id="path84"/>
   <path d="m45.86,19.5a0.22,0.22 0 0 1 -0.21,-0.28l1.04,-3.52l-2.87,-2.12a0.22,0.22 0 0 1 -0.08,-0.25c0.03,-0.09 0.11,-0.15 0.21,-0.15l0,0l3.57,0.01l1.22,-3.5a0.22,0.22 0 0 1 0.21,-0.14l0,0c0.09,0 0.18,0.05 0.21,0.14l1.22,3.5l3.57,-0.01l0,0a0.22,0.22 0 0 1 0.13,0.4l-2.92,2.09l1.09,3.38a0.22,0.22 0 0 1 0.02,0.1c0,0.12 -0.1,0.22 -0.22,0.22c-0.02,0 -0.04,0 -0.06,-0.01a0.21,0.21 0 0 1 -0.07,-0.03l-2.96,-2l-2.97,2.13c-0.04,0.03 -0.08,0.04 -0.13,0.04zm-1.24,-5.87l2.46,1.81a0.22,0.22 0 0 1 0.08,0.24l-0.91,3.05l2.57,-1.85c0.07,-0.05 0.18,-0.06 0.25,0l2.57,1.73l-0.94,-2.96a0.22,0.22 0 0 1 0.07,-0.25l2.49,-1.77l-3.02,0l0,0c-0.1,0 -0.19,-0.06 -0.22,-0.15l-1.07,-3.04l-1.06,3.04c-0.03,0.09 -0.12,0.15 -0.21,0.15l0,0l-3.06,0z" fill="#a07843" id="path86"/>
   <path class="D" d="m48.95,14.97l1.29,-1.56l-0.01,0l-1.28,-3.64l-0.01,0.02l0.01,5.18z" id="path88"/>
   <g class="C" id="g94" transform="translate(-56.048,-98.772)">
    <path d="m103,114.39l1.99,-0.65l0,0l-4.97,-1.55l2.98,2.2z" id="path90"/>
    <path d="m104.99,108.56l-1.26,3.62l1.26,1.56l0,0l0,-5.18z" id="path92"/>
   </g>
   <path class="D" d="m43.97,13.42l4.97,1.55l-1.26,-1.56l0,0l-3.73,-0.01l0.02,0.02z" id="path96"/>
   <path class="C" d="m50.24,13.41l-1.29,1.55l5,-1.55l0,-0.01l-3.71,0.01z" id="path98"/>
   <path class="D" d="m50.91,15.58l3.04,-2.17l-5,1.55l0,0.01l0,0l1.96,0.61z" id="path100"/>
   <path class="C" d="m48.95,14.97l3.09,4.17l-1.13,-3.56l0,0l-1.96,-0.61z" id="path102"/>
   <path class="D" d="m52.05,19.15l-0.01,-0.01l-3.09,-4.17l0,2.09l0,0l3.1,2.09zm-6.19,0.13l0.02,-0.01l3.06,-4.29l-1.99,0.64l-1.09,3.66z" id="path104"/>
   <path class="C" d="m48.95,17.06l0,-2.09l-0.01,0.01l-3.06,4.29l3.07,-2.21z" id="path106"/>
  </g>
  <g id="g210" transform="matrix(1.082537,0,0,1.082537,-213.67644,-113.76846)">
   <use class="B D E" height="100%" href="#N" id="use108" width="100%" x="0" y="0"/>
   <use class="C" height="100%" href="#O" id="use110" width="100%" x="0" y="0"/>
   <g id="g116" transform="matrix(-0.865463,0.500973,0.500973,0.865463,309.18718,-83.308037)">
    <use class="B D E" height="100%" href="#N" id="use112" width="100%" x="0" y="0"/>
    <use class="C" height="100%" href="#O" id="use114" width="100%" x="0" y="0"/>
   </g>
   <g id="g122" transform="matrix(-0.865463,0.500973,0.500973,0.865463,307.98447,-87.81821)">
    <use class="B D E" height="100%" href="#N" id="use118" width="100%" x="0" y="0"/>
    <use class="C" height="100%" href="#O" id="use120" width="100%" x="0" y="0"/>
   </g>
   <g id="g128" transform="matrix(-0.819271,0.360222,0.33038,0.893274,327.7961,-67.483607)">
    <use class="B D E" height="100%" href="#N" id="use124" width="100%" x="0" y="0"/>
    <use class="C" height="100%" href="#O" id="use126" width="100%" x="0" y="0"/>
   </g>
   <g id="g134" transform="matrix(-0.797736,0.296778,0.253142,0.897612,336.27489,-58.800477)">
    <use class="B D E" height="100%" href="#N" id="use130" width="100%" x="0" y="0"/>
    <use class="C" height="100%" href="#O" id="use132" width="100%" x="0" y="0"/>
   </g>
   <g id="g140" transform="matrix(-0.806541,0.271941,0.225234,0.905018,342.88296,-59.28716)">
    <use class="B D E" height="100%" href="#N" id="use136" width="100%" x="0" y="0"/>
    <use class="C" height="100%" href="#O" id="use138" width="100%" x="0" y="0"/>
   </g>
   <g id="g146" transform="matrix(-0.688131,0.145876,0.093896,0.78482,341.1012,-15.38584)">
    <use class="B D E" height="100%" href="#N" id="use142" width="100%" x="0" y="0"/>
    <use class="C" height="100%" href="#O" id="use144" width="100%" x="0" y="0"/>
   </g>
   <g id="g152" transform="matrix(-0.701109,0.057019,-0.006855,0.790387,362.51618,-2.013247)">
    <use class="B D E" height="100%" href="#N" id="use148" width="100%" x="0" y="0"/>
    <use class="C" height="100%" href="#O" id="use150" width="100%" x="0" y="0"/>
   </g>
   <g id="g158" transform="matrix(-0.703423,1.21e-4,-0.070766,0.787242,375.61384,6.700784)">
    <use class="B D E" height="100%" href="#N" id="use154" width="100%" x="0" y="0"/>
    <use class="C" height="100%" href="#O" id="use156" width="100%" x="0" y="0"/>
   </g>
   <g id="g164" transform="rotate(6.088,254.364,165.986)">
    <use class="B D E" height="100%" href="#N" id="use160" width="100%" x="0" y="0"/>
    <use class="C" height="100%" href="#O" id="use162" width="100%" x="0" y="0"/>
   </g>
   <g id="g170" transform="matrix(0.960247,0.134688,-0.134488,0.961676,30.374539,-31.039345)">
    <use class="B D E" height="100%" href="#N" id="use166" width="100%" x="0" y="0"/>
    <use class="C" height="100%" href="#O" id="use168" width="100%" x="0" y="0"/>
   </g>
   <g id="g176" transform="matrix(0.836687,0.146549,-0.134991,0.908681,56.368469,-28.497272)">
    <use class="B D E" height="100%" href="#N" id="use172" width="100%" x="0" y="0"/>
    <use class="C" height="100%" href="#O" id="use174" width="100%" x="0" y="0"/>
   </g>
   <g id="g182" transform="matrix(0.822302,0.212935,-0.207167,0.89499,71.940996,-44.944204)">
    <use class="B D E" height="100%" href="#N" id="use178" width="100%" x="0" y="0"/>
    <use class="C" height="100%" href="#O" id="use180" width="100%" x="0" y="0"/>
   </g>
   <g id="g188" transform="matrix(0.772536,0.273585,-0.284634,0.814249,96.548022,-47.917311)">
    <use class="B D E" height="100%" href="#N" id="use184" width="100%" x="0" y="0"/>
    <use class="C" height="100%" href="#O" id="use186" width="100%" x="0" y="0"/>
   </g>
   <g id="g194" transform="matrix(0.733822,0.364919,-0.380927,0.773894,122.69927,-64.894074)">
    <use class="B D E" height="100%" href="#N" id="use190" width="100%" x="0" y="0"/>
    <use class="C" height="100%" href="#O" id="use192" width="100%" x="0" y="0"/>
   </g>
   <g id="g200" transform="matrix(0.666563,0.463669,-0.502177,0.679871,159.66477,-73.264197)">
    <use class="B D E" height="100%" href="#N" id="use196" width="100%" x="0" y="0"/>
    <use class="C" height="100%" href="#O" id="use198" width="100%" x="0" y="0"/>
   </g>
   <g id="g206" transform="matrix(0.217408,0.782323,-0.820466,0.203084,314.99015,-59.029985)">
    <use class="B D E" height="100%" href="#N" id="use202" width="100%" x="0" y="0"/>
    <use class="C" height="100%" href="#O" id="use204" width="100%" x="0" y="0"/>
   </g>
   <path class="E" d="m214.65,181.61c-2.32,-7.39 -7.36,-23.21 -0.98,-36.95" fill="none" id="path208" stroke-width="0.56"/>
  </g>
  <g id="g1418" transform="matrix(1.0091947,0,0,1.0091947,-0.5263813,-0.77144544)">
   <g id="g220" transform="matrix(0.417064,-0.449936,0.478053,0.376034,-123.53732,97.64488)">
    <use class="B H I" height="100%" href="#P" id="use212" width="100%" x="0" y="0"/>
    <use class="G" height="100%" href="#Q" id="use214" width="100%" x="0" y="0"/>
    <use class="B J K" height="100%" href="#R" id="use216" width="100%" x="0" y="0"/>
    <use class="L" height="100%" href="#S" id="use218" width="100%" x="0" y="0"/>
   </g>
   <g id="g230" transform="matrix(0.494862,-0.488299,0.506542,0.466235,-148.21068,96.8177)">
    <use class="B H I" height="100%" href="#P" id="use222" width="100%" x="0" y="0"/>
    <use class="G" height="100%" href="#Q" id="use224" width="100%" x="0" y="0"/>
    <use class="B J K" height="100%" href="#R" id="use226" width="100%" x="0" y="0"/>
    <use class="L" height="100%" href="#S" id="use228" width="100%" x="0" y="0"/>
   </g>
   <g id="g240" transform="matrix(0.643002,-0.440143,0.462097,0.61776,-179.20368,61.81375)">
    <use class="B H I" height="100%" href="#P" id="use232" width="100%" x="0" y="0"/>
    <use class="G" height="100%" href="#Q" id="use234" width="100%" x="0" y="0"/>
    <use class="B J K" height="100%" href="#R" id="use236" width="100%" x="0" y="0"/>
    <use class="L" height="100%" href="#S" id="use238" width="100%" x="0" y="0"/>
   </g>
   <g id="g250" transform="matrix(0.717505,-0.303914,0.330437,0.697117,-175.03075,15.94629)">
    <use class="B H I" height="100%" href="#P" id="use242" width="100%" x="0" y="0"/>
    <use class="G" height="100%" href="#Q" id="use244" width="100%" x="0" y="0"/>
    <use class="B J K" height="100%" href="#T" id="use246" width="100%" x="0" y="0"/>
    <use class="L" height="100%" href="#S" id="use248" width="100%" x="0" y="0"/>
   </g>
   <g id="g260" transform="matrix(0.788323,-0.256532,0.282143,0.777309,-185.11881,-5.810691)">
    <use class="B H I" height="100%" href="#P" id="use252" width="100%" x="0" y="0"/>
    <use class="G" height="100%" href="#Q" id="use254" width="100%" x="0" y="0"/>
    <use class="B J K" height="100%" href="#T" id="use256" width="100%" x="0" y="0"/>
    <use class="L" height="100%" href="#S" id="use258" width="100%" x="0" y="0"/>
   </g>
   <g id="g270" transform="matrix(0.887257,-0.220367,0.220497,0.943795,-201.92868,-39.06224)">
    <use class="B H I" height="100%" href="#P" id="use262" width="100%" x="0" y="0"/>
    <use class="G" height="100%" href="#Q" id="use264" width="100%" x="0" y="0"/>
    <use class="B J K" height="100%" href="#T" id="use266" width="100%" x="0" y="0"/>
    <use class="L" height="100%" href="#S" id="use268" width="100%" x="0" y="0"/>
   </g>
   <g id="g280" transform="matrix(0.907177,-0.113212,0.106613,0.963329,-187.85185,-66.518295)">
    <use class="B H I" height="100%" href="#P" id="use272" width="100%" x="0" y="0"/>
    <use class="G" height="100%" href="#Q" id="use274" width="100%" x="0" y="0"/>
    <use class="B J K" height="100%" href="#T" id="use276" width="100%" x="0" y="0"/>
    <use class="L" height="100%" href="#S" id="use278" width="100%" x="0" y="0"/>
   </g>
   <use class="B H I" height="100%" href="#P" id="use282" transform="translate(-56.048,-98.772)" width="100%" x="-139.91" y="0"/>
   <use class="G" height="100%" href="#Q" id="use284" transform="translate(-56.048,-98.772)" width="100%" x="-139.91" y="0"/>
   <use class="B J K" height="100%" href="#T" id="use286" transform="translate(-56.048,-98.772)" width="100%" x="-139.91" y="0"/>
   <use class="L" height="100%" href="#S" id="use288" transform="translate(-56.048,-98.772)" width="100%" x="-139.91" y="0"/>
  </g>
  <path d="m36.17,58.61l0,7.84l-5.19,0l0,7.97l-6.19,0l2.81,8.93l11.69,0l0,1.09l9.66,0l9.66,0l0,-1.09l11.69,0l2.82,-8.93l-6.19,0l0,-7.97l-5.2,0l0,-7.84l-6.54,0l0,20.62l-0.84,0l-0.55,2l-4.85,0l-4.85,0l-0.55,-2l-0.83,0l0,-20.62l-6.55,0z" id="path290"/>
  <path d="m55.19,77.56l0,1.67l-0.84,0l-0.67,2l-9.58,0l-0.67,-2l-0.71,-0.04c0.02,-0.13 -0.02,-0.51 -0.01,-0.65c1.88,-0.46 4.19,-0.73 6.01,-0.59c0.72,-0.02 1.34,0.5 2.04,0.53c0.9,0.31 1.22,-0.58 1.79,-1.06c0.44,-0.47 1.18,-1 1.81,-0.54c0.32,0.15 0.43,0.75 0.82,0.68l0.01,0z" fill="#ff0000" id="path292"/>
  <g class="B" fill="#ff0000" id="g298" stroke="#890000" transform="translate(-56.048,-98.772)">
   <use height="100%" href="#U" id="use294" width="100%" x="0" y="0"/>
   <path d="m78.3,163.34l1.81,0.09m-1.82,0.41l1.82,0.04m1.33,9.72l-1.8,0.49m0.16,0.54l1.79,-0.47" id="path296"/>
  </g>
  <g class="B" fill="#ff0000" id="g306" stroke="#890000" transform="matrix(-1,0,0,1,264.07219,-98.772)">
   <use height="100%" href="#U" id="use302" width="100%" x="110.12" y="0"/>
   <path d="m188.42,163.34l1.8,0.09m-1.81,0.41l1.82,0.04m1.33,9.72l-1.8,0.49m0.16,0.54l1.79,-0.47" id="path304"/>
  </g>
  <g id="g1434">
   <path d="m30.36,83.35l8.93,0l0,1.09l9.66,0l9.66,0l0,-1.09l8.94,0c-0.13,0.09 -0.25,0.2 -0.35,0.32l-2.8,3.32c-0.55,0.66 -0.59,1.6 -0.15,2.29l-1.8,1.82c-0.62,-0.55 -1.55,-0.66 -2.3,-0.21l-3.71,2.25c-0.55,0.33 -0.88,0.9 -0.92,1.5l-2.65,0.61c-0.31,-0.65 -0.98,-1.11 -1.75,-1.11l-4.34,0a1.94,1.94 0 0 0 -1.75,1.11l-2.64,-0.61c-0.05,-0.6 -0.37,-1.17 -0.92,-1.5l-3.72,-2.25c-0.74,-0.45 -1.68,-0.34 -2.3,0.21l-1.8,-1.82c0.44,-0.69 0.4,-1.62 -0.15,-2.29l-2.8,-3.32a1.91,1.91 0 0 0 -0.34,-0.32z" fill="#00a2e9" id="path48"/>
   <g fill="none" id="g316" stroke="#004b6c" transform="translate(-56.048,-98.772)">
    <g id="g312" stroke-width="0.67">
     <use height="100%" href="#V" id="use308" width="100%" x="0" y="0"/>
     <use height="100%" href="#V" id="use310" width="100%" x="0" y="2.69"/>
    </g>
    <path d="m118,190.18c-1.46,-0.42 -2.07,-0.46 -3.36,-0.62c-1.64,-0.18 -3.33,1.33 -5.16,0.93c-1.2,-0.25 -2.66,-1.13 -4.48,-1.06c-1.82,-0.07 -3.28,0.81 -4.48,1.06c-1.83,0.4 -3.52,-1.11 -5.16,-0.93c-1.4,0.15 -1.01,0.08 -2.25,0.49" id="path314" stroke-width="0.61"/>
   </g>
   <g fill="none" id="g332" stroke="#000000" transform="translate(-165.903,-98.772)">
    <rect class="F" height="2.87" id="rect318" ry="1.44" width="7.22" x="211.25" y="193.41"/>
    <rect class="F" height="2.87" id="rect320" ry="1.44" transform="rotate(31.226)" width="7.22" x="271.04" y="57.1"/>
    <rect class="F" height="2.87" id="rect322" ry="1.44" transform="rotate(49.916)" width="7.22" x="264.75" y="-32.45"/>
    <path class="Q" d="m197.51,186.7l4.63,4.68m3.3,1.89l7.75,1.79" id="path324"/>
    <rect class="F" height="2.87" id="rect326" ry="1.44" transform="matrix(-0.855126,0.51842,0.51842,0.855126,0,0)" width="7.22" x="-96.42" y="279.87"/>
    <rect class="F" height="2.87" id="rect328" ry="1.44" transform="matrix(-0.643906,0.765105,0.765105,0.643906,0,0)" width="7.22" x="-11.94" y="296.33"/>
    <path class="Q" d="m232.2,186.7l-4.63,4.68m-3.3,1.89l-7.75,1.79" id="path330"/>
   </g>
  </g>
  <g fill="#181818" id="g340" stroke="#ffffff" transform="translate(-56.048,-98.772)">
   <path class="F" d="m103.5,167.89l0.41,0.9l1.42,0l0.4,-0.99l-2.23,0.09z" id="path334" stroke-width="0.29"/>
   <path class="F" d="m104.8,140.52c0.23,0.78 0.83,1.36 0.42,2.44c-0.41,1.08 0.14,1.71 0.42,2.4c0.55,1.31 -0.78,2.09 -0.31,3.61c0.32,1.05 0.75,1.94 -0.01,3.22c-0.53,0.89 -0.02,1.52 0.28,2.39c0.36,1.05 0.44,2.11 0,3.33c-0.83,2.28 0.16,2.2 0.28,3.42c0.26,2.67 0.31,5.33 2.9,7.8c-2.66,-1.28 -3.98,-1.66 -7.59,-0.97c0.38,-0.22 0.64,-0.65 0.7,-0.83c-0.14,0.06 -0.28,0.15 -0.46,-0.05c0.33,-0.07 0.44,-0.39 0.65,-0.6c-0.33,-0.24 -0.38,0.04 -0.49,0.22c-0.1,-0.96 0.86,-1.56 1.48,-3.1c0.38,-0.96 0.33,-1.69 0.22,-2.45c-0.27,-1.85 -0.14,-2.72 0.29,-3.97c0.31,-0.89 0.81,-1.72 0.23,-2.75c-0.64,-1.18 -0.17,-1.95 0.19,-2.84c0.37,-0.92 0.29,-1.52 0,-2.18c-0.59,-1.34 -0.02,-1.97 0.33,-2.66c0.4,-0.62 0.53,-1.28 0.14,-1.73c-0.28,-0.31 -0.59,-0.76 -0.05,-2.26c0.34,-0.93 0.28,-1.64 0.38,-2.44z" id="path336" stroke-width="0.26"/>
   <path class="B" d="m104.75,168.72c-0.71,-0.23 -1.34,0.3 -0.91,1.01c0.28,1.01 0.27,2.07 0.42,3.11c0.12,0.68 -0.15,1.61 -1.01,1.35c-0.82,0.02 -1.07,1.09 -0.63,1.65c0.48,0.68 1.51,0.83 2.23,0.49c0.7,-0.35 0.97,-1.11 1.11,-1.83c0.13,-0.89 -0.25,-1.77 -0.3,-2.66c-0.07,-0.88 -0.24,-1.82 0.09,-2.65c0.17,-0.71 -0.6,-0.61 -1,-0.47z" id="path338"/>
  </g>
  <g id="g356" transform="translate(-166.132,-98.772)">
   <g id="g352" stroke="#c0c0c0" stroke-width="0.77">
    <path class="F G N" d="m190.82,186l-6.19,4.01c1.4,2.28 3.04,4.42 4.9,6.34c6.65,6.87 16.06,10.92 25.55,10.91c9.49,0 18.91,-4.04 25.55,-10.91c1.86,-1.92 3.5,-4.05 4.9,-6.34l-6.18,-4.01c-5.24,8.64 -14.41,13.88 -24.27,13.88c-9.86,0 -19.03,-5.24 -24.26,-13.88z" id="path342"/>
    <path d="m188.89,183.11l-4.26,6.89l4.9,6.35c0.97,-2.7 2.92,-4.83 2.68,-8.25l-3.32,-4.99z" fill="#dbdbdb" id="path344"/>
    <path d="m177.33,185.47c2.09,0.23 5.31,-3.22 8.13,-4.96c1.3,-0.54 1.7,0.07 1.93,0.33l4.43,6.72c-1.77,-2.7 -6.88,4.36 -10.1,4.1l-4.39,-6.19z" fill="url(#I)" id="path346"/>
    <path d="m241.28,183.11l4.25,6.89l-4.89,6.35c-0.98,-2.7 -2.93,-4.84 -2.69,-8.25l3.33,-4.99z" fill="#dbdbdb" id="path348"/>
    <path d="m252.84,185.47c-2.09,0.23 -5.31,-3.23 -8.13,-4.96c-1.3,-0.54 -1.7,0.06 -1.94,0.33l-4.43,6.71c1.78,-2.69 6.88,4.37 10.1,4.11l4.4,-6.19z" fill="url(#J)" id="path350"/>
   </g>
   <path d="m194.56,197.02l0.86,0.5q-0.21,0.46 -0.13,0.8q0.09,0.36 0.47,0.63q0.4,0.28 0.72,0.26q0.33,-0.03 0.49,-0.25q0.11,-0.15 0.09,-0.31q-0.01,-0.17 -0.17,-0.39q-0.11,-0.16 -0.53,-0.66q-0.55,-0.64 -0.65,-1.07q-0.14,-0.61 0.21,-1.1q0.22,-0.31 0.59,-0.46q0.38,-0.15 0.82,-0.05q0.43,0.09 0.91,0.43q0.77,0.55 0.92,1.17q0.15,0.62 -0.23,1.2l-0.86,-0.55q0.17,-0.36 0.1,-0.62q-0.08,-0.27 -0.43,-0.52q-0.36,-0.25 -0.67,-0.25q-0.2,0 -0.32,0.16q-0.1,0.15 -0.05,0.34q0.06,0.24 0.57,0.82q0.5,0.57 0.68,0.93q0.18,0.36 0.16,0.74q-0.03,0.39 -0.3,0.78q-0.26,0.35 -0.67,0.52q-0.42,0.17 -0.89,0.06q-0.46,-0.11 -1,-0.49q-0.78,-0.55 -0.94,-1.21q-0.16,-0.66 0.25,-1.41zm6.07,5.74l1.9,-4.68l1.99,0.81q0.75,0.3 1.04,0.56q0.29,0.27 0.36,0.67q0.08,0.41 -0.09,0.82q-0.22,0.53 -0.67,0.75q-0.44,0.22 -1.1,0.06q0.24,0.3 0.35,0.59q0.11,0.3 0.23,0.98l0.2,1.15l-1.13,-0.46l-0.27,-1.3q-0.14,-0.69 -0.22,-0.88q-0.08,-0.2 -0.2,-0.31q-0.13,-0.12 -0.46,-0.25l-0.19,-0.08l-0.79,1.95l-0.95,-0.38zm2.04,-2.32l0.7,0.29q0.68,0.27 0.88,0.28q0.19,0.01 0.34,-0.09q0.15,-0.1 0.24,-0.31q0.09,-0.24 0.02,-0.43q-0.06,-0.2 -0.27,-0.33q-0.11,-0.06 -0.69,-0.3l-0.74,-0.3l-0.48,1.19zm10.44,5.64l-1.1,-0.16l-0.27,-1.19l-2,-0.29l-0.57,1.07l-1.07,-0.15l2.66,-4.72l1.07,0.16l1.28,5.28zm-1.57,-2.24l-0.42,-1.96l-0.95,1.76l1.37,0.2zm7.55,0.15l-0.1,-0.85l2.18,-0.25l0.23,1.99q-0.28,0.35 -0.86,0.66q-0.57,0.3 -1.19,0.37q-0.79,0.09 -1.41,-0.17q-0.63,-0.26 -0.99,-0.84q-0.37,-0.58 -0.45,-1.3q-0.09,-0.78 0.16,-1.43q0.26,-0.65 0.85,-1.05q0.46,-0.3 1.18,-0.39q0.93,-0.11 1.5,0.23q0.57,0.32 0.8,1l-0.98,0.3q-0.15,-0.35 -0.47,-0.53q-0.31,-0.18 -0.75,-0.13q-0.66,0.08 -1.01,0.54q-0.34,0.47 -0.24,1.3q0.1,0.89 0.55,1.29q0.45,0.4 1.09,0.33q0.32,-0.04 0.63,-0.2q0.3,-0.17 0.51,-0.37l-0.07,-0.64l-1.16,0.14zm6.52,0.5l-1.79,-4.72l3.5,-1.33l0.3,0.8l-2.55,0.97l0.4,1.05l2.37,-0.9l0.3,0.79l-2.37,0.9l0.49,1.29l2.64,-1.01l0.3,0.8l-3.59,1.36zm7.33,-3.31l-2.84,-4.17l0.82,-0.56l3.61,1.63l-1.9,-2.79l0.79,-0.54l2.83,4.18l-0.84,0.58l-3.54,-1.58l1.85,2.72l-0.78,0.53z" id="path354"/>
  </g>
  <text fill="#000000" font-family="Serif" font-size="24" id="svg_1" stroke="#000000" stroke-width="0" text-anchor="middle" transform="matrix(0.636573 0 0 1.45373 -663.629 8.85776)" x="1120.29" xml:space="preserve" y="100.15">TEMPELREJO</text>
 </g>
</svg>