<?xml version="1.0" encoding="UTF-8" standalone="no"?>
<svg
   xmlns:dc="http://purl.org/dc/elements/1.1/"
   xmlns:cc="http://creativecommons.org/ns#"
   xmlns:rdf="http://www.w3.org/1999/02/22-rdf-syntax-ns#"
   xmlns:svg="http://www.w3.org/2000/svg"
   xmlns="http://www.w3.org/2000/svg"
   xmlns:xlink="http://www.w3.org/1999/xlink"
   xmlns:sodipodi="http://sodipodi.sourceforge.net/DTD/sodipodi-0.dtd"
   xmlns:inkscape="http://www.inkscape.org/namespaces/inkscape"
   width="370.027"
   height="486.678"
   viewBox="0 0 97.903 128.767"
   version="1.1"
   id="svg360"
   sodipodi:docname="Seal of Sragen Regency (1).svg"
   inkscape:version="1.0.1 (3bc2e813f5, 2020-09-07)">
  <metadata
     id="metadata364">
    <rdf:RDF>
      <cc:Work
         rdf:about="">
        <dc:format>image/svg+xml</dc:format>
        <dc:type
           rdf:resource="http://purl.org/dc/dcmitype/StillImage" />
      </cc:Work>
    </rdf:RDF>
  </metadata>
  <sodipodi:namedview
     pagecolor="#ffffff"
     bordercolor="#666666"
     borderopacity="1"
     objecttolerance="10"
     gridtolerance="10"
     guidetolerance="10"
     inkscape:pageopacity="0"
     inkscape:pageshadow="2"
     inkscape:window-width="1366"
     inkscape:window-height="705"
     id="namedview362"
     showgrid="false"
     inkscape:zoom="0.65372188"
     inkscape:cx="352.26304"
     inkscape:cy="264.21521"
     inkscape:window-x="-8"
     inkscape:window-y="-8"
     inkscape:window-maximized="1"
     inkscape:current-layer="svg360"
     inkscape:snap-bbox="true"
     inkscape:bbox-paths="true"
     inkscape:bbox-nodes="true"
     inkscape:snap-bbox-edge-midpoints="true"
     inkscape:snap-bbox-midpoints="true"
     inkscape:snap-nodes="true"
     inkscape:object-paths="true"
     inkscape:snap-intersection-paths="true"
     inkscape:snap-smooth-nodes="true"
     inkscape:snap-midpoints="true"
     inkscape:snap-object-midpoints="true"
     inkscape:snap-center="true" />
  <style
     id="style2"><![CDATA[.B{stroke-width:.265}.C{fill:#ffeba3}.D{fill:#f5c742}.E{stroke:#a07843}.F{opacity:.998}.G{fill:#fff}.H{fill:#cecece}.I{stroke:#b9b9b9}.J{fill:#008e2b}.K{stroke:#00541a}.L{fill:#00b537}.M{stroke:#8b0000}.N{fill-rule:evenodd}.O{stroke:#a9a9a9}.P{stroke-width:.318}.Q{stroke-linecap:round}]]></style>
  <defs
     id="defs42">
    <linearGradient
       id="A"
       gradientUnits="userSpaceOnUse">
      <stop
         offset="0"
         stop-color="#dbdbdb"
         id="stop4" />
      <stop
         offset="1"
         stop-color="#fff"
         id="stop6" />
    </linearGradient>
    <linearGradient
       id="B"
       gradientUnits="userSpaceOnUse">
      <stop
         offset="0"
         stop-color="#fff"
         id="stop9" />
      <stop
         offset="1"
         stop-color="#c4c4c4"
         id="stop11" />
    </linearGradient>
    <linearGradient
       id="C"
       gradientUnits="userSpaceOnUse">
      <stop
         offset="0"
         stop-color="#ca0000"
         id="stop14" />
      <stop
         offset="1"
         stop-color="red"
         id="stop16" />
    </linearGradient>
    <linearGradient
       xlink:href="#C"
       id="D"
       x1="853.45"
       y1="470.729"
       x2="838.037"
       y2="482.977" />
    <linearGradient
       xlink:href="#B"
       id="E"
       x1="222.343"
       y1="129.799"
       x2="225.814"
       y2="126.692" />
    <linearGradient
       xlink:href="#B"
       id="F"
       x1="222.343"
       y1="129.799"
       x2="225.814"
       y2="126.692" />
    <linearGradient
       xlink:href="#C"
       id="G"
       x1="853.45"
       y1="470.729"
       x2="838.037"
       y2="482.977" />
    <radialGradient
       id="H"
       cx="812.05"
       cy="542.264"
       fx="812.05"
       fy="542.264"
       r="94.249"
       gradientTransform="matrix(0.26458333,0,0,0.17740621,-165.90284,-51.499023)"
       gradientUnits="userSpaceOnUse">
      <stop
         offset="0"
         stop-color="#57b500"
         id="stop23" />
      <stop
         offset="1"
         stop-color="#008e2b"
         id="stop25" />
    </radialGradient>
    <linearGradient
       xlink:href="#A"
       id="I"
       x1="188.892"
       y1="183.11"
       x2="184.113"
       y2="185.47" />
    <linearGradient
       xlink:href="#A"
       id="J"
       x1="241.275"
       y1="183.106"
       x2="246.054"
       y2="185.466" />
    <path
       id="K"
       d="M226.758 124.871c-2.464 1.475-4.748 3.249-6.77 5.291l-1.436 1.548 1.016 2.329.001.001a31.45 31.45 0 0 1 2.153-2.387c1.86-1.86 3.955-3.48 6.212-4.83z" />
    <path
       id="L"
       d="M852.592 464.58c-9.926 5.94-19.125 13.086-27.268 21.311-3.66 3.696-7.1 7.604-10.308 11.692l11.01.22c1.725-1.974 3.58-3.988 5.425-5.852 7.641-7.717 16.272-14.422 25.586-19.996z" />
    <path
       id="M"
       d="M85.896 122.92l-2.198 4.25 2.787 3.592 1.763-3.939z" />
    <path
       id="N"
       d="M207.334 174.126l.717 1.144c.058.721.359 1.355.729 2.118 1.005 2.067 2.926 2.983 5.614 3.402-1.599-2.078-.297-3.633-5.865-5.652-.41-.149-.705-.864-1.195-1.011z" />
    <path
       id="O"
       d="M208.903 175.948c1.505.613 3.145 1.062 3.496 3.071-1.165-1.304-2.331-2.118-3.496-3.071z" />
    <path
       id="P"
       d="M273.088 177.531c-.581-1.619.179-3.279 2.788-2.953 2.283-1.621 3.633.325 3.921.945 4.122 1.114 1.886 4.564.898 4.37l-3.969.024z" />
    <path
       id="Q"
       d="M274.104 176.184c.832.404 1.341.692 1.582.549.406-.24.354-1.226 2.023-1.447.504.645 1.025 1.283.978 2.174 1.004-.349 1.827.148 2.646.661 1.196-.069-.711-2.41-1.654-2.126-.68-.544-1.338-2.31-3.638-.898-1.584-.216-3.282.434-1.937 1.087z" />
    <path
       id="R"
       d="M272.663 175.995c1.191.273 2.095.947 2.977 1.654.749-.614 1.297-1.228 1.795-1.843.493.853.745 1.585.992 2.315 1.719-.66 2.874.23 4.11.898-2.082 3.942-6.305 1.939-7.323 3.402-1.453-1.747-3.23-3.449-2.551-6.426z" />
    <path
       id="S"
       d="M273.266 177.183c1.165.283 1.756.805 2.405 1.303.553-.489 1.275-.83 1.503-1.604a4.61 4.61 0 0 1 .768 1.988c1.658-.673 2.364.194 3.508.351-1.592.419-3.107 1.059-4.995.635-2.238-.891-2.129-1.782-3.191-2.673z" />
    <path
       id="T"
       d="M272.663 175.995c1.191.273 2.095.947 2.977 1.654.749-.614 1.297-1.228 1.795-1.843.493.853.745 1.585.992 2.315 1.719-.66 2.874.23 4.11.898-2.082 3.942-6.305 1.939-7.323 3.402-1.016-1.871-2.458-3.668-2.551-6.426z" />
    <path
       id="U"
       d="M80.428 151.539c-4.912 13.811-.354 26.597 3.283 31.449l1.299-.543c-4.995-9.079-5.721-18.521-4.027-28.062z" />
    <path
       id="V"
       d="M121.563 185.882l-.063-.032c-1.497-.398-3.185-1.187-4.871-1.337-1.985-.177-4.016 1.307-6.225.916-1.447-.251-3.204-1.114-5.404-1.044-2.2-.071-3.957.792-5.404 1.044-2.209.391-4.24-1.092-6.225-.916-1.686.15-3.375.939-4.871 1.337l-.063.032" />
    <filter
       inkscape:collect="always"
       style="color-interpolation-filters:sRGB"
       id="filter1503"
       x="-7.0617897e-06"
       width="1.0000141"
       y="-2.2947346e-05"
       height="1.0000459">
      <feGaussianBlur
         inkscape:collect="always"
         stdDeviation="1.7525682e-05"
         id="feGaussianBlur1505" />
    </filter>
  </defs>
  <path
     d="m 1.05,1.05 v 59.021 c 0,36.124 22.859,58.3 47.902,67.576 25.043,-9.276 47.902,-31.452 47.902,-67.576 V 1.05 H 48.952 Z"
     fill="#ffea00"
     stroke="#e62129"
     stroke-width="2.1"
     id="path44" />
  <path
     d="m 48.939,27.982 c -1.853,0.159 -3.733,0.271 -5.475,0.777 -1.726,0.502 -3.312,1.407 -4.574,3.115 -3.121,0.638 -5.372,1.733 -6.933,3.196 -1.553,1.455 -2.414,3.273 -2.797,5.324 -2.136,0.856 -3.493,2.37 -4.262,4.215 -0.778,1.866 -0.977,4.055 -0.848,6.234 l 0.195,1.908 c -2.454,6.919 -2.543,13.582 -1.561,19.123 0.964,5.442 2.956,9.795 4.765,12.271 -0.283,0.654 -0.196,1.442 0.291,2.021 l 2.796,3.322 c 0.592,0.703 1.589,0.878 2.375,0.471 l 1.99,2.01 c -0.255,0.828 0.071,1.76 0.842,2.228 l 3.715,2.252 c 0.91,0.552 2.108,0.257 2.66,-0.653 a 1.93,1.93 0 0 0 0.093,-0.172 l 2.642,0.613 c 0.082,0.99 0.917,1.775 1.928,1.775 h 4.343 c 1.01,0 1.847,-0.785 1.93,-1.775 l 2.64,-0.612 c 0.028,0.058 0.058,0.115 0.093,0.172 0.552,0.91 1.751,1.204 2.661,0.653 l 3.713,-2.251 c 0.772,-0.468 1.098,-1.402 0.843,-2.23 l 1.991,-2.01 c 0.785,0.407 1.781,0.233 2.373,-0.47 l 2.797,-3.323 a 1.94,1.94 0 0 0 0.29,-2.018 c 1.809,-2.476 3.8,-6.83 4.765,-12.273 0.982,-5.542 0.894,-12.206 -1.562,-19.127 0.088,-0.628 0.157,-1.265 0.195,-1.904 0.129,-2.179 -0.068,-4.368 -0.846,-6.234 -0.769,-1.844 -2.126,-3.359 -4.262,-4.215 -0.383,-2.051 -1.244,-3.869 -2.797,-5.324 -1.561,-1.463 -3.814,-2.558 -6.935,-3.196 -1.263,-1.708 -2.847,-2.613 -4.572,-3.115 -1.742,-0.506 -3.624,-0.619 -5.477,-0.777 h -0.011 z"
     class="G"
     id="path46" />
  <g
     id="g1510">
    <path
       d="m 48.952,28.114 c -3.71,0.318 -7.493,0.447 -9.993,3.875 -6.258,1.266 -8.943,4.375 -9.688,8.486 -8.59,3.349 -4.195,17.419 -2.339,20.58 l 2.072,-10.49 2.606,4.41 0.936,-6.08 2.171,4.21 2.873,-7.384 2.873,5.446 2.572,-5.279 c 1.447,2.933 3.159,4.123 3.408,14.968 h 2.509 2.509 c 0.249,-10.844 1.96,-12.035 3.408,-14.968 l 2.572,5.279 2.873,-5.446 2.873,7.384 2.171,-4.21 0.936,6.08 2.606,-4.41 2.072,10.49 c 1.856,-3.161 6.251,-17.23 -2.339,-20.58 -0.745,-4.111 -3.431,-7.22 -9.688,-8.486 -2.5,-3.429 -6.283,-3.558 -9.993,-3.875 z"
       fill="url(#H)"
       stroke="#0b7033"
       class="B"
       id="path50"
       style="fill:url(#H)" />
    <path
       id="path1487"
       style="fill:#ffea00;stroke:none;stroke-width:0.264583px;stroke-linecap:butt;stroke-linejoin:miter;stroke-opacity:1;filter:url(#filter1503);fill-opacity:1"
       d="m 48.951516,31.024997 c -1.182321,0.05814 -2.073835,0.963875 -2.978115,1.832963 0.892512,-0.38077 1.435006,-0.901058 2.978115,-0.974617 1.543111,0.07356 2.085605,0.593847 2.978114,0.974617 -0.90428,-0.869088 -1.795794,-1.774826 -2.978114,-1.832963 z m 13.717085,7.982451 c -1.18234,-1.730828 -2.92408,-2.631079 -4.70317,-3.475908 1.92277,0.233642 4.03601,-0.02893 4.70317,3.475908 z m -4.60416,2.009302 c -1.74356,-1.163478 -3.69555,-1.347489 -5.66146,-1.466138 1.87074,-0.501944 3.73268,-1.535327 5.66146,1.466138 z m 12.33415,4.288163 c -1.32607,-1.623332 -3.13845,-2.371276 -4.98328,-3.060802 1.9357,0.06829 4.01872,-0.374108 4.98328,3.060802 z m -35.16416,-6.297465 c 1.18234,-1.730828 2.92408,-2.631079 4.70317,-3.475908 -1.92277,0.233642 -4.03601,-0.02893 -4.70317,3.475908 z m 4.60416,2.009302 c 1.74356,-1.163478 3.69555,-1.347489 5.66146,-1.466138 -1.87074,-0.501944 -3.73268,-1.535327 -5.66146,1.466138 z m -12.33415,4.288163 c 1.32607,-1.623332 3.13845,-2.371276 4.98328,-3.060802 -1.9357,0.06829 -4.01872,-0.374108 -4.98328,3.060802 z" />
  </g>
  <path
     d="m 36.034,52.886 0.162,0.317 1.67,2.49 a 19.9,19.9 0 0 0 -5.44,5.44 l -2.49,-1.67 -0.316,-0.162 -3.472,8.381 0.338,0.109 2.942,0.58 a 19.9,19.9 0 0 0 0,7.695 h 39.047 a 19.9,19.9 0 0 0 0,-7.694 l 2.942,-0.58 0.338,-0.11 -3.472,-8.381 -0.316,0.162 -2.49,1.67 a 19.9,19.9 0 0 0 -5.44,-5.44 l 1.67,-2.49 0.162,-0.317 -8.382,-3.472 -0.109,0.338 -0.58,2.942 a 19.9,19.9 0 0 0 -7.694,0 l -0.58,-2.942 -0.109,-0.338 z"
     fill="#ffeb00"
     stroke="#c0b100"
     stroke-width="0.344"
     id="path52" />
  <path
     d="m 51.046,63.455 c -1.1,-0.017 -2.182,0.78 -3.426,0.15 -9.191,6.161 -12.487,10.397 -22.827,12.442 l 2.864,7.192 H 48.95 70.244 l 2.864,-7.192 C 62.832,75.221 59.003,69.508 52.573,64.194 52.049,63.639 51.546,63.463 51.046,63.455 Z"
     fill="#0f9f48"
     stroke="#0b7033"
     stroke-width="0.23"
     id="path54" />
  <use
     xlink:href="#K"
     fill="url(#F)"
     class="F O P"
     id="use64"
     style="fill:url(#F);fill-rule:evenodd"
     x="0"
     y="0"
     width="100%"
     height="100%"
     transform="matrix(-1,0,0,1,293.638,-98.771996)" />
  <g
     id="g1377">
    <g
       transform="translate(-195.734,-98.772)"
       class="N"
       id="g60">
      <use
         xlink:href="#K"
         fill="url(#E)"
         class="F O P"
         id="use56"
         style="fill:url(#E)"
         x="0"
         y="0"
         width="100%"
         height="100%" />
      <use
         xlink:href="#L"
         transform="scale(0.26458333)"
         fill="url(#D)"
         stroke-width="1.2"
         class="F M"
         id="use58"
         style="fill:url(#D)"
         x="0"
         y="0"
         width="100%"
         height="100%" />
    </g>
    <use
       xlink:href="#M"
       fill="#c50000"
       class="B M"
       id="use62"
       x="0"
       y="0"
       width="100%"
       height="100%"
       transform="translate(-56.048,-98.772)" />
    <use
       xlink:href="#L"
       transform="matrix(-0.26458333,0,0,0.26458333,293.638,-98.771996)"
       fill="url(#G)"
       stroke-width="1.2"
       class="F M"
       id="use66"
       style="fill:url(#G);fill-rule:evenodd"
       x="0"
       y="0"
       width="100%"
       height="100%" />
    <use
       xlink:href="#M"
       fill="#c50000"
       class="B M"
       id="use70"
       x="0"
       y="0"
       width="100%"
       height="100%"
       transform="matrix(-1,0,0,1,153.952,-98.771996)" />
    <g
       stroke-width="0.317"
       id="g78"
       transform="translate(-56.048,-98.772)">
      <path
         d="m 104.999,122.141 c -7.144,0 -14.25,2.472 -19.905,6.829 l 1.391,1.792 c 5.296,-4.111 11.81,-6.342 18.515,-6.342 6.705,0 13.218,2.231 18.515,6.342 l 1.391,-1.792 c -5.655,-4.356 -12.762,-6.829 -19.906,-6.829 z"
         class="F G N O"
         id="path74" />
      <path
         d="m 104.654,119.861 c -7.53,0.075 -14.996,2.716 -20.956,7.309 l 1.397,1.799 c 5.655,-4.356 12.761,-6.829 19.905,-6.829 7.144,0 14.251,2.472 19.906,6.829 l 1.397,-1.799 c -6.052,-4.662 -13.657,-7.308 -21.303,-7.309 -0.108,-0.001 -0.216,-0.001 -0.324,0 a 4.56,4.56 0 0 0 -0.022,0 z"
         fill="#ff0000"
         class="M"
         id="path76" />
    </g>
  </g>
  <g
     id="g1360">
    <path
       d="m 41.423,5.745 v 10.25 c 0,6.273 3.593,10.124 7.529,11.735 3.936,-1.611 7.529,-5.462 7.529,-11.735 V 5.745 h -7.529 z"
       opacity="0.99"
       id="path80" />
    <path
       d="m 43.968,13.417 2.981,2.198 -10e-4,0.005"
       class="C"
       id="path82" />
    <path
       d="m 48.95,9.768 -0.006,0.017 -1.263,3.621 -0.002,0.005 -3.73,-0.008 0.019,0.014 2.98,2.203 -1.089,3.662 0.023,-0.015 3.063,-2.203 0.006,-0.004 3.095,2.089 -0.002,-0.007 -1.138,-3.561 h 10e-4 l 3.044,-2.173 0.006,-0.004 -3.719,0.008 h -0.009 z"
       class="G"
       id="path84" />
    <path
       fill="#a07843"
       d="m 45.859,19.502 a 0.22,0.22 0 0 1 -0.212,-0.284 l 1.044,-3.514 -2.873,-2.124 a 0.22,0.22 0 0 1 -0.079,-0.247 c 0.03,-0.091 0.115,-0.152 0.21,-0.152 v 0 l 3.573,0.008 1.219,-3.495 A 0.22,0.22 0 0 1 48.95,9.546 v 0 c 0.094,0 0.177,0.059 0.209,0.148 l 1.224,3.495 3.571,-0.008 v 0 a 0.22,0.22 0 0 1 0.129,0.401 l -2.919,2.084 1.082,3.385 a 0.22,0.22 0 0 1 0.022,0.096 c 0,0.122 -0.099,0.221 -0.221,0.221 -0.02,0 -0.04,-0.003 -0.058,-0.008 a 0.21,0.21 0 0 1 -0.068,-0.03 l -2.966,-2.002 -2.966,2.133 c -0.038,0.028 -0.083,0.041 -0.128,0.041 z m -1.237,-5.877 2.457,1.817 a 0.22,0.22 0 0 1 0.08,0.241 l -0.904,3.042 2.561,-1.841 c 0.075,-0.054 0.182,-0.06 0.259,-0.008 l 2.566,1.732 -0.946,-2.96 a 0.22,0.22 0 0 1 0.08,-0.246 l 2.488,-1.776 -3.027,0.007 v 0 c -0.094,0 -0.186,-0.059 -0.217,-0.148 l -1.067,-3.048 -1.061,3.041 c -0.031,0.089 -0.117,0.154 -0.211,0.154 v 0 l -3.057,-0.007 z"
       id="path86" />
    <path
       d="m 48.945,14.968 1.291,-1.557 H 50.227 L 48.95,9.768 48.944,9.785 Z"
       class="D"
       id="path88" />
    <g
       class="C"
       id="g94"
       transform="translate(-56.048,-98.772)">
      <path
         d="m 102.996,114.391 1.997,-0.647 v -0.004 l -4.977,-1.552 2.981,2.198 z"
         id="path90" />
      <path
         d="m 104.993,108.557 -1.263,3.621 1.26,1.562 h 0.003 z"
         id="path92" />
    </g>
    <path
       d="m 43.968,13.417 4.973,1.551 -1.26,-1.562 -0.002,0.005 -3.73,-0.008 z"
       class="D"
       id="path96" />
    <path
       d="m 50.236,13.411 -1.288,1.554 5.001,-1.558 0.006,-0.004 z"
       class="C"
       id="path98" />
    <path
       d="m 50.906,15.58 3.044,-2.173 -5.001,1.558 -0.003,0.004 v 0 z"
       class="D"
       id="path100" />
    <path
       d="m 48.945,14.973 3.098,4.168 -1.138,-3.561 h 10e-4 l -1.961,-0.611 z"
       class="C"
       id="path102" />
    <path
       d="m 52.045,19.148 -0.002,-0.007 -3.098,-4.168 v 2.091 l 0.006,-0.004 z m -6.186,0.133 0.023,-0.015 3.053,-4.29 -1.987,0.643 z"
       class="D"
       id="path104" />
    <path
       d="m 48.945,17.063 v -2.09 l -0.01,0.003 -3.053,4.29 z"
       class="C"
       id="path106" />
  </g>
  <g
     transform="matrix(1.082537,0,0,1.082537,-213.67644,-113.76846)"
     id="g210">
    <use
       xlink:href="#N"
       class="B D E"
       id="use108"
       x="0"
       y="0"
       width="100%"
       height="100%" />
    <use
       xlink:href="#O"
       class="C"
       id="use110"
       x="0"
       y="0"
       width="100%"
       height="100%" />
    <g
       transform="matrix(-0.865463,0.500973,0.500973,0.865463,309.18718,-83.308037)"
       id="g116">
      <use
         xlink:href="#N"
         class="B D E"
         id="use112"
         x="0"
         y="0"
         width="100%"
         height="100%" />
      <use
         xlink:href="#O"
         class="C"
         id="use114"
         x="0"
         y="0"
         width="100%"
         height="100%" />
    </g>
    <g
       transform="matrix(-0.865463,0.500973,0.500973,0.865463,307.98447,-87.81821)"
       id="g122">
      <use
         xlink:href="#N"
         class="B D E"
         id="use118"
         x="0"
         y="0"
         width="100%"
         height="100%" />
      <use
         xlink:href="#O"
         class="C"
         id="use120"
         x="0"
         y="0"
         width="100%"
         height="100%" />
    </g>
    <g
       transform="matrix(-0.819271,0.360222,0.33038,0.893274,327.7961,-67.483607)"
       id="g128">
      <use
         xlink:href="#N"
         class="B D E"
         id="use124"
         x="0"
         y="0"
         width="100%"
         height="100%" />
      <use
         xlink:href="#O"
         class="C"
         id="use126"
         x="0"
         y="0"
         width="100%"
         height="100%" />
    </g>
    <g
       transform="matrix(-0.797736,0.296778,0.253142,0.897612,336.27489,-58.800477)"
       id="g134">
      <use
         xlink:href="#N"
         class="B D E"
         id="use130"
         x="0"
         y="0"
         width="100%"
         height="100%" />
      <use
         xlink:href="#O"
         class="C"
         id="use132"
         x="0"
         y="0"
         width="100%"
         height="100%" />
    </g>
    <g
       transform="matrix(-0.806541,0.271941,0.225234,0.905018,342.88296,-59.28716)"
       id="g140">
      <use
         xlink:href="#N"
         class="B D E"
         id="use136"
         x="0"
         y="0"
         width="100%"
         height="100%" />
      <use
         xlink:href="#O"
         class="C"
         id="use138"
         x="0"
         y="0"
         width="100%"
         height="100%" />
    </g>
    <g
       transform="matrix(-0.688131,0.145876,0.093896,0.78482,341.1012,-15.38584)"
       id="g146">
      <use
         xlink:href="#N"
         class="B D E"
         id="use142"
         x="0"
         y="0"
         width="100%"
         height="100%" />
      <use
         xlink:href="#O"
         class="C"
         id="use144"
         x="0"
         y="0"
         width="100%"
         height="100%" />
    </g>
    <g
       transform="matrix(-0.701109,0.057019,-0.006855,0.790387,362.51618,-2.013247)"
       id="g152">
      <use
         xlink:href="#N"
         class="B D E"
         id="use148"
         x="0"
         y="0"
         width="100%"
         height="100%" />
      <use
         xlink:href="#O"
         class="C"
         id="use150"
         x="0"
         y="0"
         width="100%"
         height="100%" />
    </g>
    <g
       transform="matrix(-0.703423,1.21e-4,-0.070766,0.787242,375.61384,6.700784)"
       id="g158">
      <use
         xlink:href="#N"
         class="B D E"
         id="use154"
         x="0"
         y="0"
         width="100%"
         height="100%" />
      <use
         xlink:href="#O"
         class="C"
         id="use156"
         x="0"
         y="0"
         width="100%"
         height="100%" />
    </g>
    <g
       transform="rotate(6.088,254.364,165.986)"
       id="g164">
      <use
         xlink:href="#N"
         class="B D E"
         id="use160"
         x="0"
         y="0"
         width="100%"
         height="100%" />
      <use
         xlink:href="#O"
         class="C"
         id="use162"
         x="0"
         y="0"
         width="100%"
         height="100%" />
    </g>
    <g
       transform="matrix(0.960247,0.134688,-0.134488,0.961676,30.374539,-31.039345)"
       id="g170">
      <use
         xlink:href="#N"
         class="B D E"
         id="use166"
         x="0"
         y="0"
         width="100%"
         height="100%" />
      <use
         xlink:href="#O"
         class="C"
         id="use168"
         x="0"
         y="0"
         width="100%"
         height="100%" />
    </g>
    <g
       transform="matrix(0.836687,0.146549,-0.134991,0.908681,56.368469,-28.497272)"
       id="g176">
      <use
         xlink:href="#N"
         class="B D E"
         id="use172"
         x="0"
         y="0"
         width="100%"
         height="100%" />
      <use
         xlink:href="#O"
         class="C"
         id="use174"
         x="0"
         y="0"
         width="100%"
         height="100%" />
    </g>
    <g
       transform="matrix(0.822302,0.212935,-0.207167,0.89499,71.940996,-44.944204)"
       id="g182">
      <use
         xlink:href="#N"
         class="B D E"
         id="use178"
         x="0"
         y="0"
         width="100%"
         height="100%" />
      <use
         xlink:href="#O"
         class="C"
         id="use180"
         x="0"
         y="0"
         width="100%"
         height="100%" />
    </g>
    <g
       transform="matrix(0.772536,0.273585,-0.284634,0.814249,96.548022,-47.917311)"
       id="g188">
      <use
         xlink:href="#N"
         class="B D E"
         id="use184"
         x="0"
         y="0"
         width="100%"
         height="100%" />
      <use
         xlink:href="#O"
         class="C"
         id="use186"
         x="0"
         y="0"
         width="100%"
         height="100%" />
    </g>
    <g
       transform="matrix(0.733822,0.364919,-0.380927,0.773894,122.69927,-64.894074)"
       id="g194">
      <use
         xlink:href="#N"
         class="B D E"
         id="use190"
         x="0"
         y="0"
         width="100%"
         height="100%" />
      <use
         xlink:href="#O"
         class="C"
         id="use192"
         x="0"
         y="0"
         width="100%"
         height="100%" />
    </g>
    <g
       transform="matrix(0.666563,0.463669,-0.502177,0.679871,159.66477,-73.264197)"
       id="g200">
      <use
         xlink:href="#N"
         class="B D E"
         id="use196"
         x="0"
         y="0"
         width="100%"
         height="100%" />
      <use
         xlink:href="#O"
         class="C"
         id="use198"
         x="0"
         y="0"
         width="100%"
         height="100%" />
    </g>
    <g
       transform="matrix(0.217408,0.782323,-0.820466,0.203084,314.99015,-59.029985)"
       id="g206">
      <use
         xlink:href="#N"
         class="B D E"
         id="use202"
         x="0"
         y="0"
         width="100%"
         height="100%" />
      <use
         xlink:href="#O"
         class="C"
         id="use204"
         x="0"
         y="0"
         width="100%"
         height="100%" />
    </g>
    <path
       d="m 214.651,181.61 c -2.319,-7.395 -7.358,-23.208 -0.98,-36.955"
       fill="none"
       stroke-width="0.565"
       class="E"
       id="path208" />
  </g>
  <g
     id="g1418"
     transform="matrix(1.0091947,0,0,1.0091947,-0.5263813,-0.77144544)">
    <g
       transform="matrix(0.417064,-0.449936,0.478053,0.376034,-123.53732,97.64488)"
       id="g220">
      <use
         xlink:href="#P"
         class="B H I"
         id="use212"
         x="0"
         y="0"
         width="100%"
         height="100%" />
      <use
         xlink:href="#Q"
         class="G"
         id="use214"
         x="0"
         y="0"
         width="100%"
         height="100%" />
      <use
         xlink:href="#R"
         class="B J K"
         id="use216"
         x="0"
         y="0"
         width="100%"
         height="100%" />
      <use
         xlink:href="#S"
         class="L"
         id="use218"
         x="0"
         y="0"
         width="100%"
         height="100%" />
    </g>
    <g
       transform="matrix(0.494862,-0.488299,0.506542,0.466235,-148.21068,96.8177)"
       id="g230">
      <use
         xlink:href="#P"
         class="B H I"
         id="use222"
         x="0"
         y="0"
         width="100%"
         height="100%" />
      <use
         xlink:href="#Q"
         class="G"
         id="use224"
         x="0"
         y="0"
         width="100%"
         height="100%" />
      <use
         xlink:href="#R"
         class="B J K"
         id="use226"
         x="0"
         y="0"
         width="100%"
         height="100%" />
      <use
         xlink:href="#S"
         class="L"
         id="use228"
         x="0"
         y="0"
         width="100%"
         height="100%" />
    </g>
    <g
       transform="matrix(0.643002,-0.440143,0.462097,0.61776,-179.20368,61.81375)"
       id="g240">
      <use
         xlink:href="#P"
         class="B H I"
         id="use232"
         x="0"
         y="0"
         width="100%"
         height="100%" />
      <use
         xlink:href="#Q"
         class="G"
         id="use234"
         x="0"
         y="0"
         width="100%"
         height="100%" />
      <use
         xlink:href="#R"
         class="B J K"
         id="use236"
         x="0"
         y="0"
         width="100%"
         height="100%" />
      <use
         xlink:href="#S"
         class="L"
         id="use238"
         x="0"
         y="0"
         width="100%"
         height="100%" />
    </g>
    <g
       transform="matrix(0.717505,-0.303914,0.330437,0.697117,-175.03075,15.94629)"
       id="g250">
      <use
         xlink:href="#P"
         class="B H I"
         id="use242"
         x="0"
         y="0"
         width="100%"
         height="100%" />
      <use
         xlink:href="#Q"
         class="G"
         id="use244"
         x="0"
         y="0"
         width="100%"
         height="100%" />
      <use
         xlink:href="#T"
         class="B J K"
         id="use246"
         x="0"
         y="0"
         width="100%"
         height="100%" />
      <use
         xlink:href="#S"
         class="L"
         id="use248"
         x="0"
         y="0"
         width="100%"
         height="100%" />
    </g>
    <g
       transform="matrix(0.788323,-0.256532,0.282143,0.777309,-185.11881,-5.810691)"
       id="g260">
      <use
         xlink:href="#P"
         class="B H I"
         id="use252"
         x="0"
         y="0"
         width="100%"
         height="100%" />
      <use
         xlink:href="#Q"
         class="G"
         id="use254"
         x="0"
         y="0"
         width="100%"
         height="100%" />
      <use
         xlink:href="#T"
         class="B J K"
         id="use256"
         x="0"
         y="0"
         width="100%"
         height="100%" />
      <use
         xlink:href="#S"
         class="L"
         id="use258"
         x="0"
         y="0"
         width="100%"
         height="100%" />
    </g>
    <g
       transform="matrix(0.887257,-0.220367,0.220497,0.943795,-201.92868,-39.06224)"
       id="g270">
      <use
         xlink:href="#P"
         class="B H I"
         id="use262"
         x="0"
         y="0"
         width="100%"
         height="100%" />
      <use
         xlink:href="#Q"
         class="G"
         id="use264"
         x="0"
         y="0"
         width="100%"
         height="100%" />
      <use
         xlink:href="#T"
         class="B J K"
         id="use266"
         x="0"
         y="0"
         width="100%"
         height="100%" />
      <use
         xlink:href="#S"
         class="L"
         id="use268"
         x="0"
         y="0"
         width="100%"
         height="100%" />
    </g>
    <g
       transform="matrix(0.907177,-0.113212,0.106613,0.963329,-187.85185,-66.518295)"
       id="g280">
      <use
         xlink:href="#P"
         class="B H I"
         id="use272"
         x="0"
         y="0"
         width="100%"
         height="100%" />
      <use
         xlink:href="#Q"
         class="G"
         id="use274"
         x="0"
         y="0"
         width="100%"
         height="100%" />
      <use
         xlink:href="#T"
         class="B J K"
         id="use276"
         x="0"
         y="0"
         width="100%"
         height="100%" />
      <use
         xlink:href="#S"
         class="L"
         id="use278"
         x="0"
         y="0"
         width="100%"
         height="100%" />
    </g>
    <use
       xlink:href="#P"
       x="-139.908"
       class="B H I"
       id="use282"
       y="0"
       width="100%"
       height="100%"
       transform="translate(-56.048,-98.772)" />
    <use
       xlink:href="#Q"
       x="-139.908"
       class="G"
       id="use284"
       y="0"
       width="100%"
       height="100%"
       transform="translate(-56.048,-98.772)" />
    <use
       xlink:href="#T"
       x="-139.908"
       class="B J K"
       id="use286"
       y="0"
       width="100%"
       height="100%"
       transform="translate(-56.048,-98.772)" />
    <use
       xlink:href="#S"
       x="-139.908"
       class="L"
       id="use288"
       y="0"
       width="100%"
       height="100%"
       transform="translate(-56.048,-98.772)" />
  </g>
  <path
     d="m 36.173,58.608 v 7.843 h -5.197 v 7.967 h -6.189 l 2.814,8.934 h 11.693 v 1.088 h 9.658 9.659 v -1.088 h 11.693 l 2.814,-8.934 H 66.929 V 66.451 H 61.732 V 58.608 H 55.187 V 79.229 H 54.351 L 53.8,81.234 H 48.952 44.104 L 43.553,79.229 H 42.717 V 58.608 Z"
     id="path290" />
  <path
     d="m 55.186,77.559 v 1.67 H 54.35 l -0.673,2.005 H 44.103 L 43.43,79.229 42.717,79.188 c 0.019,-0.126 -0.012,-0.506 -0.009,-0.644 1.878,-0.463 4.194,-0.733 6.011,-0.594 0.718,-0.016 1.343,0.503 2.041,0.526 0.902,0.314 1.219,-0.58 1.79,-1.053 0.437,-0.475 1.18,-1.008 1.808,-0.539 0.324,0.142 0.437,0.75 0.827,0.674 z"
     id="path292"
     style="fill:#ff0000" />
  <g
     stroke="#890000"
     class="B"
     id="g298"
     style="fill:#ff0000"
     transform="translate(-56.048,-98.772)">
    <use
       xlink:href="#U"
       id="use294"
       x="0"
       y="0"
       width="100%"
       height="100%" />
    <path
       d="m 78.3,163.345 1.805,0.088 m -1.812,0.408 1.817,0.04 m 1.327,9.721 -1.793,0.488 m 0.155,0.542 1.791,-0.474"
       id="path296" />
  </g>
  <g
     transform="matrix(-1,0,0,1,264.07219,-98.772)"
     fill="#ff0000"
     stroke="#890000"
     class="B"
     id="g306">
    <use
       xlink:href="#U"
       x="110.12"
       id="use302"
       y="0"
       width="100%"
       height="100%" />
    <path
       d="m 188.42,163.345 1.805,0.088 m -1.812,0.408 1.817,0.04 m 1.327,9.721 -1.793,0.488 m 0.155,0.542 1.791,-0.474"
       id="path304" />
  </g>
  <g
     id="g1434">
    <path
       d="m 30.356,83.353 h 8.937 v 1.088 h 9.658 9.659 v -1.088 h 8.936 c -0.125,0.09 -0.243,0.196 -0.346,0.319 l -2.797,3.323 c -0.556,0.66 -0.59,1.594 -0.149,2.288 l -1.802,1.821 c -0.619,-0.554 -1.555,-0.668 -2.3,-0.217 l -3.713,2.251 c -0.55,0.334 -0.874,0.904 -0.923,1.503 l -2.644,0.612 C 52.56,94.598 51.892,94.14 51.123,94.14 H 46.78 a 1.94,1.94 0 0 0 -1.748,1.113 l -2.644,-0.612 c -0.049,-0.599 -0.372,-1.17 -0.922,-1.503 L 37.751,90.886 C 37.006,90.435 36.07,90.549 35.452,91.104 L 33.65,89.283 c 0.441,-0.695 0.405,-1.628 -0.15,-2.289 l -2.796,-3.322 a 1.91,1.91 0 0 0 -0.348,-0.32 z"
       fill="#00a2e9"
       id="path48" />
    <g
       fill="none"
       stroke="#004b6c"
       id="g316"
       transform="translate(-56.048,-98.772)">
      <g
         stroke-width="0.665"
         id="g312">
        <use
           xlink:href="#V"
           id="use308"
           x="0"
           y="0"
           width="100%"
           height="100%" />
        <use
           xlink:href="#V"
           y="2.6930001"
           id="use310"
           x="0"
           width="100%"
           height="100%" />
      </g>
      <path
         d="m 118.002,190.176 c -1.465,-0.42 -2.068,-0.454 -3.359,-0.617 -1.646,-0.18 -3.33,1.333 -5.162,0.934 -1.2,-0.257 -2.657,-1.137 -4.481,-1.065 -1.824,-0.072 -3.281,0.809 -4.481,1.065 -1.832,0.399 -3.516,-1.115 -5.162,-0.934 -1.398,0.153 -1.003,0.084 -2.244,0.49"
         stroke-width="0.612"
         id="path314" />
    </g>
    <g
       transform="translate(-165.903,-98.772)"
       stroke="#000000"
       fill="none"
       id="g332">
      <rect
         width="7.2160001"
         height="2.8729999"
         x="211.24699"
         y="193.41299"
         ry="1.437"
         class="F"
         id="rect318" />
      <rect
         width="7.2160001"
         height="2.8729999"
         x="271.03601"
         y="57.103001"
         ry="1.437"
         transform="rotate(31.226)"
         class="F"
         id="rect320" />
      <rect
         width="7.2160001"
         height="2.8729999"
         x="264.74799"
         y="-32.446999"
         ry="1.437"
         transform="rotate(49.916)"
         class="F"
         id="rect322" />
      <path
         d="m 197.506,186.698 4.63,4.677 m 3.307,1.891 7.749,1.795"
         class="Q"
         id="path324" />
      <rect
         width="7.2160001"
         height="2.8729999"
         x="-96.418999"
         y="279.87299"
         ry="1.437"
         transform="matrix(-0.855126,0.51842,0.51842,0.855126,0,0)"
         class="F"
         id="rect326" />
      <rect
         width="7.2160001"
         height="2.8729999"
         x="-11.944"
         y="296.32501"
         ry="1.437"
         transform="matrix(-0.643906,0.765105,0.765105,0.643906,0,0)"
         class="F"
         id="rect328" />
      <path
         d="m 232.204,186.698 -4.63,4.677 m -3.308,1.891 -7.749,1.795"
         class="Q"
         id="path330" />
    </g>
  </g>
  <g
     fill="#181818"
     stroke="#ffffff"
     id="g340"
     transform="translate(-56.048,-98.772)">
    <path
       d="m 103.498,167.887 0.407,0.902 h 1.429 l 0.399,-0.991 z"
       stroke-width="0.287"
       class="F"
       id="path334" />
    <path
       d="m 104.8,140.522 c 0.235,0.779 0.834,1.362 0.422,2.44 -0.412,1.078 0.14,1.712 0.422,2.396 0.542,1.313 -0.779,2.09 -0.316,3.615 0.319,1.052 0.748,1.933 -0.012,3.216 -0.526,0.889 -0.02,1.519 0.281,2.395 0.36,1.047 0.443,2.103 0,3.327 -0.823,2.275 0.165,2.2 0.281,3.416 0.257,2.673 0.312,5.331 2.907,7.808 -2.662,-1.282 -3.988,-1.661 -7.596,-0.975 0.386,-0.222 0.641,-0.651 0.699,-0.834 -0.141,0.06 -0.275,0.159 -0.458,-0.042 0.332,-0.076 0.441,-0.397 0.655,-0.604 -0.339,-0.239 -0.389,0.042 -0.497,0.22 -0.095,-0.958 0.866,-1.561 1.48,-3.1 0.381,-0.955 0.328,-1.687 0.219,-2.451 -0.263,-1.845 -0.14,-2.718 0.293,-3.971 0.307,-0.889 0.806,-1.715 0.234,-2.75 -0.648,-1.174 -0.17,-1.948 0.188,-2.839 0.367,-0.916 0.289,-1.522 0,-2.174 -0.596,-1.343 -0.023,-1.974 0.328,-2.662 0.396,-0.626 0.535,-1.287 0.141,-1.73 -0.278,-0.313 -0.59,-0.764 -0.047,-2.263 0.338,-0.932 0.278,-1.636 0.375,-2.44 z"
       stroke-width="0.259"
       class="F"
       id="path336" />
    <path
       d="m 104.747,168.721 c -0.709,-0.235 -1.333,0.298 -0.911,1.005 0.281,1.013 0.271,2.076 0.42,3.11 0.126,0.68 -0.143,1.616 -1.011,1.354 -0.813,0.016 -1.061,1.086 -0.621,1.653 0.473,0.68 1.504,0.822 2.222,0.483 0.705,-0.343 0.974,-1.109 1.11,-1.826 0.133,-0.892 -0.243,-1.772 -0.301,-2.66 -0.069,-0.879 -0.233,-1.821 0.093,-2.652 0.17,-0.713 -0.594,-0.612 -1.002,-0.466 z"
       class="B"
       id="path338" />
  </g>
  <g
     transform="translate(-166.132,-98.772)"
     id="g356">
    <g
       stroke="#c0c0c0"
       stroke-width="0.765"
       id="g352">
      <path
         d="m 190.817,186.005 -6.183,4.001 c 1.396,2.289 3.036,4.425 4.897,6.348 6.644,6.863 16.059,10.911 25.551,10.91 9.492,-0.001 18.907,-4.047 25.551,-10.91 1.861,-1.923 3.501,-4.059 4.897,-6.348 l -6.183,-4.001 c -5.235,8.633 -14.403,13.876 -24.265,13.876 -9.862,0 -19.03,-5.243 -24.265,-13.876 z"
         class="F G N"
         id="path342" />
      <path
         d="m 188.892,183.109 -4.258,6.896 4.897,6.348 c 0.974,-2.704 2.923,-4.838 2.682,-8.253 z"
         fill="#dbdbdb"
         id="path344" />
      <path
         d="m 177.331,185.47 c 2.091,0.229 5.305,-3.225 8.126,-4.961 1.304,-0.54 1.704,0.069 1.937,0.331 l 4.43,6.716 c -1.778,-2.696 -6.882,4.366 -10.1,4.103 z"
         fill="url(#I)"
         id="path346"
         style="fill:url(#I)" />
      <path
         d="m 241.275,183.106 4.258,6.896 -4.897,6.348 c -0.974,-2.704 -2.923,-4.838 -2.682,-8.253 z"
         fill="#dbdbdb"
         id="path348" />
      <path
         d="m 252.836,185.467 c -2.091,0.229 -5.305,-3.225 -8.126,-4.961 -1.304,-0.54 -1.704,0.069 -1.937,0.331 l -4.43,6.716 c 1.778,-2.696 6.882,4.366 10.1,4.103 z"
         fill="url(#J)"
         id="path350"
         style="fill:url(#J)" />
    </g>
    <path
       d="m 194.56,197.019 0.864,0.497 q -0.217,0.459 -0.131,0.808 0.089,0.351 0.467,0.621 0.401,0.286 0.723,0.262 0.327,-0.025 0.489,-0.252 0.104,-0.146 0.089,-0.309 -0.01,-0.164 -0.169,-0.391 -0.11,-0.154 -0.537,-0.653 -0.55,-0.641 -0.647,-1.075 -0.137,-0.609 0.211,-1.098 0.224,-0.314 0.595,-0.46 0.375,-0.147 0.811,-0.052 0.439,0.097 0.913,0.435 0.774,0.552 0.922,1.169 0.151,0.619 -0.233,1.2 l -0.856,-0.555 q 0.173,-0.355 0.094,-0.618 -0.074,-0.264 -0.425,-0.514 -0.362,-0.258 -0.673,-0.255 -0.2,0.001 -0.314,0.161 -0.104,0.146 -0.055,0.338 0.063,0.244 0.567,0.819 0.504,0.575 0.683,0.935 0.184,0.359 0.157,0.742 -0.022,0.382 -0.3,0.772 -0.252,0.353 -0.668,0.522 -0.416,0.169 -0.883,0.064 -0.465,-0.107 -1.001,-0.489 -0.78,-0.556 -0.942,-1.213 -0.16,-0.66 0.25,-1.408 z m 6.073,5.742 1.897,-4.681 1.989,0.806 q 0.75,0.304 1.037,0.569 0.291,0.263 0.365,0.668 0.074,0.405 -0.095,0.82 -0.213,0.527 -0.663,0.746 -0.448,0.216 -1.101,0.056 0.234,0.303 0.345,0.597 0.114,0.295 0.232,0.979 l 0.202,1.145 -1.13,-0.458 -0.271,-1.295 q -0.143,-0.693 -0.22,-0.888 -0.076,-0.198 -0.205,-0.31 -0.128,-0.115 -0.454,-0.247 l -0.192,-0.078 -0.792,1.954 z m 2.04,-2.318 0.699,0.283 q 0.68,0.276 0.873,0.287 0.193,0.011 0.345,-0.091 0.153,-0.102 0.238,-0.312 0.096,-0.236 0.026,-0.432 -0.065,-0.197 -0.279,-0.329 -0.108,-0.063 -0.683,-0.295 l -0.738,-0.299 z m 10.439,5.64 -1.098,-0.158 -0.273,-1.198 -1.998,-0.288 -0.576,1.076 -1.071,-0.155 2.668,-4.718 1.067,0.154 z m -1.573,-2.246 -0.421,-1.954 -0.943,1.757 z m 7.547,0.151 -0.099,-0.845 2.183,-0.256 0.234,1.998 q -0.282,0.345 -0.86,0.652 -0.575,0.303 -1.194,0.376 -0.787,0.092 -1.411,-0.168 -0.624,-0.263 -0.99,-0.841 -0.366,-0.581 -0.451,-1.303 -0.092,-0.784 0.165,-1.431 0.257,-0.648 0.852,-1.047 0.453,-0.306 1.172,-0.39 0.934,-0.109 1.504,0.223 0.573,0.328 0.804,1.002 l -0.984,0.306 q -0.149,-0.357 -0.468,-0.535 -0.316,-0.182 -0.754,-0.13 -0.664,0.078 -1.008,0.545 -0.341,0.467 -0.244,1.295 0.105,0.893 0.554,1.295 0.449,0.398 1.092,0.323 0.318,-0.037 0.622,-0.198 0.307,-0.164 0.515,-0.369 l -0.075,-0.636 z m 6.525,0.506 -1.795,-4.721 3.5,-1.331 0.304,0.799 -2.547,0.969 0.398,1.047 2.37,-0.901 0.302,0.795 -2.37,0.901 0.489,1.285 2.637,-1.003 0.302,0.795 z m 7.33,-3.31 -2.838,-4.177 0.821,-0.558 3.605,1.628 -1.896,-2.79 0.784,-0.532 2.838,4.177 -0.846,0.575 -3.535,-1.58 1.851,2.724 z"
       id="path354" />
  </g>
</svg>
